<svg xmlns="http://www.w3.org/2000/svg" width="24" height="25" viewBox="0 0 24 25" fill="none">
  <rect y="0.0427246" width="24" height="24" rx="9.6" fill="white"/>
  <path d="M12.0001 10.8179C10.9001 10.8179 10.0001 10.4679 9.30012 9.76787C8.60012 9.06787 8.25012 8.16787 8.25012 7.06787C8.25012 5.96787 8.60012 5.06787 9.30012 4.36787C10.0001 3.66787 10.9001 3.31787 12.0001 3.31787C13.1001 3.31787 14.0001 3.66787 14.7001 4.36787C15.4001 5.06787 15.7501 5.96787 15.7501 7.06787C15.7501 8.16787 15.4001 9.06787 14.7001 9.76787C14.0001 10.4679 13.1001 10.8179 12.0001 10.8179ZM4.00012 18.8429V16.4929C4.00012 15.8595 4.15846 15.3179 4.47512 14.8679C4.79179 14.4179 5.20012 14.0762 5.70012 13.8429C6.81679 13.3429 7.88762 12.9679 8.91262 12.7179C9.93762 12.4679 10.9668 12.3429 12.0001 12.3429C13.0335 12.3429 14.0585 12.472 15.0751 12.7304C16.0918 12.9887 17.1585 13.3595 18.2751 13.8429C18.7918 14.0762 19.2085 14.4179 19.5251 14.8679C19.8418 15.3179 20.0001 15.8595 20.0001 16.4929V18.8429H4.00012Z" fill="#2F58CD"/>
</svg>